<?xml version="1.0" standalone="no"?>
<!DOCTYPE svg PUBLIC "-//W3C//DTD SVG 20010904//EN"
 "http://www.w3.org/TR/2001/REC-SVG-20010904/DTD/svg10.dtd">
<svg version="1.0" xmlns="http://www.w3.org/2000/svg"
 width="500.000000pt" height="500.000000pt" viewBox="0 0 500.000000 500.000000"
 preserveAspectRatio="xMidYMid meet">
<metadata>
Created by potrace 1.16, written by Peter Selinger 2001-2019
</metadata>
<g transform="translate(0.000000,500.000000) scale(0.100000,-0.100000)"
fill="#000000" stroke="none">
<path d="M2230 3777 c-69 -11 -126 -21 -127 -22 -1 0 7 -50 17 -110 11 -59 20
-121 20 -137 0 -34 -1 -34 150 -8 63 11 118 20 123 20 4 0 7 14 7 30 0 26 -3
30 -22 25 -31 -7 -181 -35 -189 -35 -4 0 -9 13 -11 29 -4 28 -2 29 51 40 30 6
67 11 83 11 23 0 28 4 28 24 0 14 -4 27 -9 30 -4 3 -42 -1 -84 -8 -42 -7 -79
-11 -82 -8 -3 3 -5 16 -5 28 0 26 6 29 118 45 52 8 82 17 82 25 0 18 -11 44
-19 43 -3 -1 -62 -11 -131 -22z"/>
<path d="M2477 3684 c-3 -65 -9 -129 -13 -141 -6 -21 -3 -23 35 -23 34 0 42 3
40 18 -1 9 -1 34 0 55 1 41 9 44 73 26 31 -8 42 -18 57 -53 26 -56 42 -68 88
-64 34 3 38 6 41 34 3 28 1 31 -21 27 -17 -3 -30 3 -48 25 -14 16 -34 34 -44
40 -19 11 -18 11 7 12 40 0 78 21 84 46 19 75 -23 100 -182 110 l-111 7 -6
-119z"/>
<path d="M2996 3699 c-16 -23 -16 -24 39 -43 30 -11 55 -25 55 -31 0 -6 -18
-54 -40 -105 -22 -52 -37 -97 -33 -101 5 -4 20 -10 34 -14 23 -6 27 -3 33 21
14 53 69 174 80 174 6 0 31 -9 55 -20 24 -11 45 -19 47 -18 1 2 5 14 8 28 6
24 1 27 -111 74 -151 63 -148 62 -167 35z"/>
<path d="M1933 3700 c-25 -10 -29 -20 -12 -37 6 -6 9 -26 7 -44 -2 -27 -11
-38 -43 -56 -59 -33 -71 -30 -86 22 -7 25 -17 45 -21 45 -14 0 -58 -23 -58
-31 0 -4 17 -45 38 -91 22 -46 44 -100 51 -121 7 -20 14 -37 15 -37 9 0 66 23
66 26 0 3 -11 27 -25 54 -14 27 -25 52 -25 55 0 6 69 35 86 35 7 0 34 -18 59
-40 50 -44 69 -48 103 -24 25 17 27 32 11 67 -11 24 -12 24 -29 7 -20 -20 -52
-17 -71 6 -6 8 -25 14 -41 14 l-29 0 36 31 c39 35 45 70 19 107 -17 24 -19 25
-51 12z"/>
<path d="M1592 3544 c-12 -8 -22 -21 -22 -27 0 -7 16 -52 35 -102 19 -49 34
-92 33 -96 -2 -4 -43 18 -93 47 -49 30 -94 53 -99 51 -31 -10 -29 -38 7 -133
20 -53 36 -98 35 -100 -2 -1 -44 22 -93 51 -50 30 -93 54 -96 55 -4 0 -18 -9
-33 -21 l-27 -21 108 -62 c59 -34 117 -68 129 -75 18 -12 25 -12 47 5 15 10
27 26 27 34 0 8 -16 55 -35 104 -19 49 -34 90 -32 92 1 1 44 -23 95 -53 l93
-56 28 27 29 28 -22 48 c-12 26 -35 87 -52 134 -16 47 -31 86 -34 86 -3 0 -16
-7 -28 -16z"/>
<path d="M3325 3510 c-53 -21 -90 -92 -80 -153 14 -82 139 -168 222 -152 70
13 127 102 108 167 -31 103 -162 175 -250 138z m145 -77 c17 -14 36 -37 41
-51 12 -32 -5 -87 -34 -107 -50 -35 -136 -3 -163 61 -17 39 -13 60 17 98 29
37 95 37 139 -1z"/>
<path d="M3635 3217 c-37 -56 -76 -111 -86 -123 -18 -20 -18 -21 9 -52 l27
-32 103 34 103 34 -17 -26 c-9 -15 -36 -55 -60 -90 -24 -35 -44 -66 -44 -70 0
-4 10 -20 23 -36 20 -24 26 -27 44 -18 11 6 71 26 134 45 62 19 114 39 116 43
1 5 -5 19 -15 32 -15 19 -21 21 -47 12 -17 -6 -65 -21 -108 -34 l-78 -24 17
26 c9 15 37 56 61 91 39 56 43 68 34 88 -12 27 -18 26 -135 -14 -38 -12 -75
-23 -82 -23 -7 0 14 39 47 87 32 48 59 91 59 96 0 5 -8 20 -19 33 l-18 23 -68
-102z"/>
<path d="M1106 3040 c-24 -37 -26 -44 -13 -58 20 -23 122 -202 131 -229 10
-31 18 -29 39 8 16 29 16 34 2 55 -22 33 -20 42 25 109 38 57 41 59 77 57 33
-3 40 1 56 27 l17 30 -52 5 c-173 18 -225 25 -239 30 -11 5 -24 -5 -43 -34z"/>
<path d="M3056 2915 c-3 -8 -15 -15 -26 -15 -16 0 -20 -5 -17 -25 1 -13 6 -27
10 -31 4 -4 7 -38 7 -76 0 -37 4 -68 9 -68 5 0 11 -8 14 -17 2 -10 7 0 11 22
16 88 12 83 68 89 130 16 132 15 143 -71 l7 -54 19 25 c21 27 26 113 9 147
-14 25 -101 69 -137 69 -15 0 -35 4 -43 10 -9 6 -17 5 -22 -3 -5 -9 -10 -9
-20 1 -16 16 -25 15 -32 -3z"/>
<path d="M3892 2776 c-118 -39 -122 -42 -116 -66 3 -14 9 -28 13 -33 4 -4 44
6 89 23 46 16 87 30 93 30 6 0 -19 -56 -55 -125 -58 -109 -65 -129 -55 -148 7
-12 13 -24 15 -26 2 -2 247 76 262 84 1 1 -3 16 -9 34 -9 24 -16 31 -28 26
-36 -15 -155 -55 -163 -55 -5 0 19 52 53 115 52 99 60 121 55 150 -4 19 -12
34 -19 34 -7 -1 -67 -20 -135 -43z"/>
<path d="M961 2778 c-13 -38 -10 -41 51 -58 l46 -12 -15 -52 c-8 -28 -21 -66
-29 -84 l-13 -32 -52 20 c-28 12 -53 19 -54 18 -2 -2 -6 -17 -9 -34 l-7 -31
132 -42 c72 -23 133 -41 135 -39 2 3 7 18 10 35 6 30 4 31 -33 37 -69 12 -71
16 -44 98 14 40 26 76 28 80 2 4 27 -1 56 -12 29 -11 53 -20 54 -20 3 0 23 63
21 65 -2 1 -55 19 -118 40 -63 21 -122 41 -132 46 -13 7 -18 2 -27 -23z"/>
<path d="M1887 2699 c-58 -14 -118 -47 -164 -92 -45 -43 -51 -66 -29 -106 l14
-24 11 21 c6 12 21 22 33 22 27 0 86 63 110 116 l18 42 42 -21 c28 -14 61 -21
94 -21 46 1 53 -2 63 -23 6 -13 11 -42 11 -63 0 -50 17 -52 26 -4 11 59 -2
116 -31 141 -22 19 -37 23 -93 22 -37 -1 -84 -5 -105 -10z"/>
<path d="M3076 2413 c-43 -85 -126 -455 -136 -613 -5 -69 -12 -160 -16 -202
l-7 -78 253 0 253 0 -7 33 c-4 17 -9 104 -12 192 -6 149 -9 170 -50 315 -24
85 -52 198 -63 250 -24 116 -29 130 -48 130 -11 0 -13 -5 -8 -17 6 -14 54
-190 55 -200 0 -2 -56 -3 -124 -3 l-125 0 19 68 c10 37 26 84 34 104 19 44 19
48 6 48 -5 0 -16 -12 -24 -27z"/>
<path d="M1769 2338 c-1 -68 -21 -132 -45 -142 -15 -7 -35 -50 -77 -163 -30
-85 -54 -160 -51 -167 7 -18 130 -74 189 -87 27 -5 72 -7 100 -4 50 7 199 59
223 78 16 12 15 79 -2 195 -12 79 -19 96 -44 121 -32 32 -42 67 -42 142 0 48
-12 64 -24 33 -3 -9 -6 -31 -6 -50 l0 -34 -96 0 -96 0 4 60 c4 53 2 60 -14 60
-14 0 -18 -8 -19 -42z"/>
</g>
</svg>
